<svg fill="#ff5c00" xmlns="http://www.w3.org/2000/svg" width="150" height="150" viewBox="0 0 1024 1024"><path d="M444 2q-52 6-99 27t-87 55q-25 22-32.5 34.5T225 138q7 6 13.5 4t18.5-15q32-34 70-55.5T408 39t86-9 84 16q61 20 107.5 60.5T760 203q4 8 7.5 16t4.5 11q3 10 10 13.5t24 4.5q52 4 97.5 34t69.5 77q27 54 19.5 115T945 582q-8 9-9 15t4 11q4 5 10 5t11-5q9-8 20.5-25t18.5-32q21-43 24-89 2-45-12.5-87T968 298q-30-35-73-56-20-10-39.5-15.5T813 219l-14-2-4-11q-6-13-17.5-33.5T756 139q-39-52-91-85.5T549 7Q529 2 496.5.5T444 2zM190 172q-5 3-10.5 13T166 216q-10 23-14.5 43.5T143 315q-1 6-2 7.5t-6 2.5q-11 2-27 9.5T80 350q-27 18-45.5 43T7 451q-4 12-5 20t-1 29 1 29 4 20q17 54 57.5 88.5T158 678q8 1 24 1.5t30 .5h34v41q0 38-3 43.5t-21 5.5h-16l-3-7q-6-14-20.5-23.5T153 730q-22 0-38.5 17T98 785q0 22 16.5 38.5T153 840q15 0 29.5-9.5T203 808l3-8h16q16 0 25-2.5t16-10.5q9-9 11-19.5t2-46.5v-41h94v22q0 14 .5 18.5t3.5 7.5q4 4 11 4t11-4q3-3 3.5-7.5t.5-18.5v-22h96v70q0 50 .5 60.5T500 824q4 4 11 4t11-4q3-3 3.5-13.5t.5-60.5v-70h96v97q0 54 .5 78t1.5 28q3 8 11 16t16 11q4 1 11 1.5t14 .5h16l3 8q6 13 20.5 22.5T745 952q22 0 38.5-16.5T800 897q0-21-16.5-38T745 842q-15 0-29.5 9.5T695 875l-3 7h-16q-20 0-22-9.5t-2-95.5v-97h94v41q0 36 2 46.5t11 19.5q7 8 16 10.5t25 2.5h16l3 8q6 13 20.5 22.5T869 840q22 0 38.5-16.5T924 785q0-21-16.5-38T869 730q-15 0-29.5 9.5T819 763l-3 7h-16q-18 0-21-5.5t-3-43.5v-40l29-2q16 0 26-1.5t21-4.5q17-4 32-10.5t20-10.5q5-5 4.5-11.5T903 630t-9.5-3.5T876 633q-6 3-15.5 6.5T844 644l-17 5H493q-235 0-287-.5t-62-3.5q-39-9-69-38t-41-69q-3-13-3-37.5t4-38.5q10-41 40.5-70t71.5-39q16-4 20-9.5t6-28.5q3-32 9.5-56t18.5-49q4-8 6.5-15t2.5-10q0-8-6.5-12t-13.5-1zm-26 591q6 3 10 9.5t4 12.5q0 9-8 17t-17 8-17-7.5-8-16.5q0-10 7.5-18t16.5-8q3 0 6 1l6 2zm716 0q6 3 10 9.5t4 12.5q0 9-7.5 17t-17.5 8q-9 0-17-7.5t-8-16.5q0-10 8-18t17-8q2 0 5.5 1t5.5 2zM756 875q6 3 10 9.5t4 12.5q0 10-8 17.5t-17 7.5-17-7.5-8-16.5q0-10 8-18t17-8q2 0 5.5 1t5.5 2zm-382-96q-3 3-3.5 10t-.5 40q0 41-2.5 47t-21.5 6h-16l-3-7q-6-14-20.5-23.5T277 842q-22 0-38.5 17T222 897q0 22 16.5 38.5T277 952q15 0 29.5-9.5T327 920l3-8h16q16 0 25-2.5t16-10.5q9-9 11-20t2-50q0-33-.5-40t-3.5-10q-2-3-5-4t-6-1-6 1-5 4zm-86 96q6 3 10 9.5t4 12.5q0 10-8 17.5t-17 7.5-17-7.5-8-16.5q0-10 7.5-18t16.5-8q3 0 6.5 1t5.5 2zm212 0q-3 2-3.5 6.5T496 898v18l-7 3q-14 6-23.5 20.5T456 969q0 22 16.5 38.5T511 1024t38.5-16.5T566 969q0-15-9.5-29.5T534 919l-8-3v-18q0-17-3-22.5t-12-5.5q-3 0-6 1.5t-5 3.5zm22 72q6 3 10 9.5t4 12.5q0 10-8 17.5t-17 7.5-17-7.5-8-16.5q0-10 7.5-18t17.5-8q2 0 5.5 1t5.5 2z"/></svg>