<?xml version="1.0" encoding="utf-8"?><svg viewBox="0 0 150 150" xmlns="http://www.w3.org/2000/svg" xmlns:xlink="http://www.w3.org/1999/xlink"><style>:root>svg{display:none}:root>svg:target{display:block}</style><svg fill="#ff5c00" viewBox="0 0 1024 1024" id="brain" xmlns="http://www.w3.org/2000/svg"><path d="M452 3q-23 5-42.5 18T378 53l-10 16-17 1q-16 1-33 7t-29 13q-12 9-25 23t-19 27q-5 11-9 25t-4 22v6h-21q-12 0-19.5 1t-17.5 5q-46 14-70.5 56.5T88 344q2 5 3 10t2 6q0 2-2 4.5t-9 6.5q-40 28-59.5 76T13 544q6 33 25 62t46 48q6 4 8 6t1 5q-3 10-5 22t-2 19q0 28 14.5 58t27.5 30q6 0 8.5-1.5t5.5-5.5q2-5 1-9t-7-12q-25-36-18.5-76.5T160 625q3-2 6.5-4.5t4.5-4.5q3-3 2.5-9.5T170 597q-7-6-19.5-.5T121 620l-13 14-10-7q-9-6-20.5-18.5T59 584q-13-23-17.5-51t1.5-53q7-28 21.5-49t37.5-37q15-10 36-17t35-7q8 0 14.5-2.5t8.5-5.5q2-5 1.5-9.5T193 344q-4-3-7.5-3.5T169 340q-7 1-17 2.5t-16 3.5-10.5 3-5.5 0l-1-5-2-12q-5-34 13.5-63.5T182 228q13-5 24-5.5t26 2.5q13 2 16.5 2t7.5-3q3-3 4-6.5t2-19.5q1-13 2-20.5t4-13.5q8-23 25.5-39t40.5-22q26-6 50 .5t43 24.5q13 13 21 30.5t8 32.5q0 7 2.5 12t6.5 7q6 2 9 1.5t7-4.5q4-5 4.5-13.5T483 170q-7-29-24.5-51.5T416 84q-6-3-11-6t-5-4q0-4 15-18t24-18q37-17 75 0t50 56q2 5 3 11t1 9v8h-16q-8 0-13.5.5T532 124q-6 5-6 12.5t6 12.5q1 1 6.5 2t13.5 1h16v100h-64q-44 0-55.5-1t-19.5-3q-13-5-21-15.5T398 206q-2-9-5.5-13.5T382 188q-6 0-10 5t-4 12q0 20 12.5 39t30.5 28q13 7 28.5 8.5T505 282h63v252H446q-65 0-94.5.5T319 536q-8 4-8.5 13t7.5 13q2 1 33.5 1.5t93.5.5h123v206h-24q-28 0-42.5 4T473 789q-17 14-24 36.5t2 31.5q4 4 7 4.5t9-1.5q4-2 6.5-7t2.5-11 5.5-16.5T493 811q8-6 19-8.5t31-2.5h25v110h-14q-13 0-19 2.5t-8 7.5q-2 4-.5 10t5.5 8q2 1 6.5 1.5t9.5.5 8.5.5 3.5 1.5q0 3-7.5 13T538 971q-22 20-51.5 23T432 982q-7-5-19.5-17T400 950l3-2 8-4q10-5 19-11t16-13q5-5 5.5-10.5T448 899q-5-5-11.5-4.5T421 902q-26 20-54 22.5T311 912q-20-11-34.5-34.5T262 832v-9l13-7q13-6 19-12t6-11q0-12-9-14t-22 6q-12 8-23.5 12t-28.5 5q-16 1-21.5 4t-5.5 12q0 8 5 11t20 3h16l2 11q4 36 28 65.5t59 40.5q5 1 14 2.5t16 2.5l18 1 9 14q20 31 55 45.5t71 6.5q18-3 32-11t28-22q20-20 27.5-40.5T598 895v-25h83l39 39-3 8q-1 4-2 9.5t-1 9.5q0 35 32.5 47t55.5-14q7-8 9.5-15t2.5-18q0-25-18.5-39.5T751 887l-8 1-22-21q-22-20-32-23.5t-50-3.5h-41v-80h132l1 5q1 6 9.5 14.5T757 791q22 11 44-.5t27-35.5q5-28-16-47t-48-11q-10 3-18.5 10T733 722l-3 8H598V630h158l1 4q1 6 8 13.5t15 12.5q6 3 10.5 4t12.5 1q9 0 13.5-1t11.5-5q18-10 24-29t-3-38q-14-27-45.5-27T758 593l-4 7H598v-55l1-54 37-1 2 6q9 22 34 28t45-9q6-5 11.5-15t6.5-18q2-10-1.5-21T723 443q-10-12-27-16t-30 2q-7 3-15.5 10T639 453l-3 7h-38v-86h167l18 18q8 7 15 13t9 6q6 2 11-2.5t6-11.5q0-5-2.5-9T807 372q-8-8-15.5-14.5T779 349l-10-5H598v-62h66q46 0 57-1t17-3q5-2 14.5-10.5T777 244l30-30 13 1q13 1 23.5-2t18.5-11 11.5-16.5T877 165q0-13-3.5-21.5T861 127q-14-12-33.5-12T794 127q-13 11-16.5 26.5T780 184l4 11-56 56-130 1v-50l1-49 34-1 4 8q6 13 19.5 21t29.5 6q21-1 34-15t13-35q0-28-25-42.5T658 93q-6 3-13 10t-9 13l-2 6h-36v-9q0-9-3.5-22T586 66q-7-14-23-30t-31-23Q513 3 492.5.5T452 3zm237 115q3 0 8 5.5t6 9.5q1 6-2 12t-7 10q-13 9-25.5-3.5T665 126q3-4 9.5-7t9.5-2q1 0 2.5.5t2.5.5zm146 29q11 4 12.5 15t-7.5 19q-7 5-14 4.5t-13-6.5q-8-8-6.5-17.5T818 147q7-3 9-3t8 3zM698 459q4 3 6 10t1 12q-2 9-13.5 13t-18.5-2q-16-13-4.5-28.5T698 459zm113 137q10 4 12.5 13.5T819 628q-5 6-11 7t-13-2q-11-4-11.5-16.5T793 598q5-3 8.5-3.5t9.5 1.5zm-26 130q1 0 3.5 1.5t4.5 3.5q9 10 3.5 22.5T778 766q-4 0-10-3t-8-7-2-10 2-11q3-4 9-7.5t10-2.5q2 1 4 1h2zm-6 196q3 3 4 6t1 8q0 18-17.5 20.5T745 942q-2-7-1-11.5t6-8.5q6-7 14-7t15 7zM343 130q-6 3-14 8t-13 10q-5 6-9.5 16.5T301 183q-2 9 1.5 14.5T314 203q7 0 10.5-3t4.5-10q2-8 6-15.5t9-10.5q2-2 7.5-4t10.5-2q11-2 15.5-6t4.5-10q0-8-4-11t-15-3q-5 0-11 .5t-9 1.5zm562 134q-14 3-24.5 11.5T865 298q-11 32 15 54t57 6q32-16 26.5-51.5T923 264q-4 0-9.5-.5t-8.5.5zm22 35q11 10 6 22.5T913 334q-14 0-19-13.5t7-23.5q5-4 13-3.5t13 5.5zm-729-31q-4 4-4 10.5t4 10.5q2 1 6.5 2.5t9.5 2.5q17 2 30.5 12t19.5 25q5 11 5 25t-5 25q-8 15-20.5 23.5T213 416q-11 2-15 5t-4 10q0 8 4.5 11.5T212 446q16 0 32-7.5t29-19.5q37-37 23-88t-65-64q-13-3-21-3t-12 4zm190 89q-3 2-4.5 6.5T381 377q-1 6-3.5 13.5T373 403q-8 16-25 28t-38 15q-11 1-16 5t-5 11q0 2 1 5t3 5q5 6 24.5 3.5T355 463q11-5 24.5-18.5T399 421q4-9 8.5-25t4.5-25q0-10-8-15t-16 1zm74 7q-4 4-4 10t4 10q1 1 4.5 2.5t6.5 2.5q24 4 32.5 23t-5.5 35q-6 7-10.5 9t-13.5 4q-5 1-9 2.5t-5 2.5q-4 4-4 10.5t4 10.5q3 3 6 3.5t11 .5q17-2 31-12t22-26q5-12 5-27t-5-27q-8-17-22-27t-31-11q-8 0-11 .5t-6 3.5zm396 80q-2 2-3 5t-1 5q0 4 3 8.5t13 14.5l17 17-3 7q-6 19 2 37t25 26q9 4 21.5 4t21.5-4q7-4 15-12t11-15q3-8 2.5-20.5T978 497q-4-8-13-16.5T949 470q-8-2-18-2t-16 2q-5 2-8 .5T891 456t-20-15.5-13 3.5zm89 60q3 3 4 6t1 8q0 14-12 19t-22-5q-10-9-5-21.5t20-12.5q4 0 7 1t7 5zm-825-31q-4 3-5 9t1 16q3 17 12 30.5t23 22.5q12 8 24 10.5t38 2.5h31l4-5q3-5 3.5-10t-3.5-9q-3-4-8-4.5t-29-1.5-29.5-2-12.5-5q-10-6-16-14.5t-8-21.5q-3-14-9.5-19t-15.5 1zm108 176q-20 7-33 20t-18 31q-5 16-2 26t13 10q7 0 10.5-4t5.5-14q1-10 4-16.5t9-12.5q9-9 20-10.5t72-2.5q52-1 64-1.5t15-3.5q4-3 4-10t-4-11q-3-3-14-3.5t-65-.5q-42 0-59.5 1t-21.5 2zm200 1q-4 4-4 11t4 10q3 3 9.5 3.5t31.5.5q26 0 32-.5t9-3.5q5-5 4.5-11.5T512 650q-3-3-10-3.5t-31-.5q-26 0-32 .5t-9 3.5zm525-2q-14 3-24.5 12T915 682q-8 24 7 45t41 21q22 0 36.5-14.5T1014 698q0-23-18-38.5T955 648zm24 36q9 11 3.5 22.5T963 718q-18 0-20-18t16-22q5-1 11 1t9 5zm-670 33q-8 8-4 16t18 10q18 2 29 14t11 30q0 17-10.5 28.5T324 831q-10 2-15 5.5t-5 9.5q0 9 6.5 13t20.5 1q24-4 40.5-21t20.5-41q5-29-12.5-53.5T332 714q-12-2-15.5-1.5T309 717zm568 92q-14 7-21.5 18.5T848 854t7 27 21 19q25 12 49-2.5t24-43.5q0-10-3-17.5T936 821q-11-12-27.5-15.5T877 809zm36 31q6 6 6 14.5t-6 14.5q-15 14-29-.5t0-28.5q6-6 14-6t15 6z"/></svg><svg fill="#ff5c00" viewBox="0 0 1024 1024" id="cloud" xmlns="http://www.w3.org/2000/svg"><path d="M444 2q-52 6-99 27t-87 55q-25 22-32.5 34.5T225 138q7 6 13.5 4t18.5-15q32-34 70-55.5T408 39t86-9 84 16q61 20 107.5 60.5T760 203q4 8 7.5 16t4.5 11q3 10 10 13.5t24 4.5q52 4 97.5 34t69.5 77q27 54 19.5 115T945 582q-8 9-9 15t4 11q4 5 10 5t11-5q9-8 20.5-25t18.5-32q21-43 24-89 2-45-12.5-87T968 298q-30-35-73-56-20-10-39.5-15.5T813 219l-14-2-4-11q-6-13-17.5-33.5T756 139q-39-52-91-85.5T549 7Q529 2 496.5.5T444 2zM190 172q-5 3-10.5 13T166 216q-10 23-14.5 43.5T143 315q-1 6-2 7.5t-6 2.5q-11 2-27 9.5T80 350q-27 18-45.5 43T7 451q-4 12-5 20t-1 29 1 29 4 20q17 54 57.5 88.5T158 678q8 1 24 1.5t30 .5h34v41q0 38-3 43.5t-21 5.5h-16l-3-7q-6-14-20.5-23.5T153 730q-22 0-38.5 17T98 785q0 22 16.5 38.5T153 840q15 0 29.5-9.5T203 808l3-8h16q16 0 25-2.5t16-10.5q9-9 11-19.5t2-46.5v-41h94v22q0 14 .5 18.5t3.5 7.5q4 4 11 4t11-4q3-3 3.5-7.5t.5-18.5v-22h96v70q0 50 .5 60.5T500 824q4 4 11 4t11-4q3-3 3.5-13.5t.5-60.5v-70h96v97q0 54 .5 78t1.5 28q3 8 11 16t16 11q4 1 11 1.5t14 .5h16l3 8q6 13 20.5 22.5T745 952q22 0 38.5-16.5T800 897q0-21-16.5-38T745 842q-15 0-29.5 9.5T695 875l-3 7h-16q-20 0-22-9.5t-2-95.5v-97h94v41q0 36 2 46.5t11 19.5q7 8 16 10.5t25 2.5h16l3 8q6 13 20.5 22.5T869 840q22 0 38.5-16.5T924 785q0-21-16.5-38T869 730q-15 0-29.5 9.5T819 763l-3 7h-16q-18 0-21-5.5t-3-43.5v-40l29-2q16 0 26-1.5t21-4.5q17-4 32-10.5t20-10.5q5-5 4.5-11.5T903 630t-9.5-3.5T876 633q-6 3-15.5 6.5T844 644l-17 5H493q-235 0-287-.5t-62-3.5q-39-9-69-38t-41-69q-3-13-3-37.5t4-38.5q10-41 40.5-70t71.5-39q16-4 20-9.5t6-28.5q3-32 9.5-56t18.5-49q4-8 6.5-15t2.5-10q0-8-6.5-12t-13.5-1zm-26 591q6 3 10 9.5t4 12.5q0 9-8 17t-17 8-17-7.5-8-16.5q0-10 7.5-18t16.5-8q3 0 6 1l6 2zm716 0q6 3 10 9.5t4 12.5q0 9-7.5 17t-17.5 8q-9 0-17-7.5t-8-16.5q0-10 8-18t17-8q2 0 5.5 1t5.5 2zM756 875q6 3 10 9.5t4 12.5q0 10-8 17.5t-17 7.5-17-7.5-8-16.5q0-10 8-18t17-8q2 0 5.5 1t5.5 2zm-382-96q-3 3-3.5 10t-.5 40q0 41-2.5 47t-21.5 6h-16l-3-7q-6-14-20.5-23.5T277 842q-22 0-38.5 17T222 897q0 22 16.5 38.5T277 952q15 0 29.5-9.5T327 920l3-8h16q16 0 25-2.5t16-10.5q9-9 11-20t2-50q0-33-.5-40t-3.5-10q-2-3-5-4t-6-1-6 1-5 4zm-86 96q6 3 10 9.5t4 12.5q0 10-8 17.5t-17 7.5-17-7.5-8-16.5q0-10 7.5-18t16.5-8q3 0 6.5 1t5.5 2zm212 0q-3 2-3.5 6.5T496 898v18l-7 3q-14 6-23.5 20.5T456 969q0 22 16.5 38.5T511 1024t38.5-16.5T566 969q0-15-9.5-29.5T534 919l-8-3v-18q0-17-3-22.5t-12-5.5q-3 0-6 1.5t-5 3.5zm22 72q6 3 10 9.5t4 12.5q0 10-8 17.5t-17 7.5-17-7.5-8-16.5q0-10 7.5-18t17.5-8q2 0 5.5 1t5.5 2z"/></svg></svg>